<svg viewBox="0 0 72 72"><path fill="#FCEA2B" d="M35.024 8.2613c.6041-.3484 1.3478-.3484 1.9519 0L59.5344 21.286c.6041.3484.9759.9925.9759 1.6903v26.0474c0 .6978-.3718 1.3419-.9759 1.6903L36.9759 63.7387c-.6041.3484-1.3478.3484-1.9519 0L12.4655 50.714c-.604-.3484-.9759-.9925-.9759-1.6903V22.9763c0-.6978.3719-1.3419.9759-1.6903L35.024 8.2613Z"/><path fill="none" stroke="#000" stroke-width="2" d="M35.024 8.2613c.6041-.3484 1.3478-.3484 1.9519 0L59.5344 21.286c.6041.3484.9759.9925.9759 1.6903v26.0474c0 .6978-.3718 1.3419-.9759 1.6903L36.9759 63.7387c-.6041.3484-1.3478.3484-1.9519 0L12.4655 50.714c-.604-.3484-.9759-.9925-.9759-1.6903V22.9763c0-.6978.3719-1.3419.9759-1.6903L35.024 8.2613Z"/></svg>