<svg width="128" height="33" viewBox="0 0 128 33" fill="none">
<path fill-rule="evenodd" clip-rule="evenodd" d="M12.975 7.37398V6.24163C12.9748 5.86148 12.8223 5.49698 12.551 5.22827C12.2797 4.95957 11.9119 4.80866 11.5285 4.80873H8.15679C7.77332 4.80866 7.40552 4.95957 7.13427 5.22827C6.86301 5.49698 6.7105 5.86148 6.71028 6.24163V7.40425C6.71028 7.53362 6.83078 7.62444 6.96293 7.59417C7.91679 7.32114 8.90478 7.18307 9.89761 7.18406C10.8596 7.18406 11.8117 7.31342 12.7323 7.56389C12.8545 7.59417 12.975 7.50472 12.975 7.37398M3.73396 8.85615L3.15785 8.28502C3.02363 8.1519 2.86426 8.0463 2.68885 7.97425C2.51345 7.9022 2.32544 7.86511 2.13558 7.86511C1.94571 7.86511 1.7577 7.9022 1.5823 7.97425C1.40689 8.0463 1.24752 8.1519 1.1133 8.28502L0.424747 8.96652C0.29014 9.09915 0.183316 9.25686 0.110421 9.43057C0.0375265 9.60429 0 9.79057 0 9.97872C0 10.1669 0.0375265 10.3531 0.110421 10.5269C0.183316 10.7006 0.29014 10.8583 0.424747 10.9909L0.991136 11.5524C1.08276 11.6419 1.21464 11.6212 1.29515 11.5318C1.62931 11.0768 1.99828 10.648 2.39878 10.2491C2.80265 9.8474 3.23909 9.47918 3.7037 9.14818C3.80476 9.08763 3.81475 8.94725 3.73424 8.85642M9.88817 12.4524V17.3517C9.88817 17.4921 10.0409 17.5923 10.1714 17.5224L14.565 15.2682C14.665 15.2186 14.6955 15.0975 14.6456 14.9984C13.7349 13.4144 12.0441 12.3327 10.0908 12.2625C9.98923 12.2625 9.88817 12.3423 9.88817 12.4524M9.88817 24.2548C6.22468 24.2548 3.24809 21.308 3.24809 17.682C3.24809 14.0554 6.22441 11.1104 9.88817 11.1104C13.553 11.1104 16.5277 14.0554 16.5277 17.682C16.5277 21.308 13.5625 24.2548 9.88789 24.2548M9.88789 8.34585C4.68488 8.34585 0.464727 12.524 0.464727 17.682C0.464727 22.8414 4.68488 27.0099 9.88789 27.0099C15.0909 27.0099 19.3111 22.8318 19.3111 17.6724C19.3111 12.513 15.1006 8.34585 9.88789 8.34585" fill="white"/>
<path fill-rule="evenodd" clip-rule="evenodd" d="M59.2607 26.1974C52.7736 26.2277 52.7736 21.0078 52.7736 20.1765L52.7625 0.622044L56.7202 0V19.4348C56.7202 19.9068 56.7203 22.8918 59.2607 22.9014V26.1974V26.1974ZM43.2185 23.0019C44.4332 23.0019 45.3342 22.9317 45.9616 22.812V18.8251C45.6483 18.7425 45.3303 18.6786 45.0093 18.6338C44.5539 18.5668 44.094 18.5333 43.6336 18.5333C43.1977 18.5333 42.7521 18.5636 42.3079 18.6338C41.862 18.6944 41.4569 18.8141 41.1029 18.9847C40.7489 19.1554 40.4546 19.3962 40.2422 19.7059C40.0201 20.0169 39.9185 20.1972 39.9185 20.6678C39.9185 21.5885 40.2422 22.1211 40.8291 22.4707C41.4164 22.8216 42.216 23.0019 43.2185 23.0019V23.0019ZM42.8743 8.77605C44.1792 8.77605 45.2828 8.93707 46.174 9.25773C47.0636 9.57838 47.7827 10.0284 48.3091 10.5995C48.8461 11.1803 49.2098 11.9523 49.4319 12.7739C49.6651 13.5955 49.7761 14.4969 49.7761 15.4878V25.5671C49.1698 25.6965 48.2477 25.8465 47.0136 26.0268C45.7795 26.2071 44.3927 26.2979 42.8534 26.2979C41.8317 26.2979 40.8905 26.1974 40.0506 26.0075C39.1994 25.8176 38.482 25.5066 37.8739 25.0758C37.277 24.6451 36.8117 24.0932 36.4677 23.4134C36.1328 22.7308 35.9607 21.7702 35.9607 20.7683C35.9607 19.8063 36.1523 19.1953 36.5288 18.5333C36.9119 17.8728 37.4283 17.3319 38.0766 16.9108C38.7346 16.4897 39.4829 16.1897 40.3435 16.0094C41.2042 15.8291 42.1049 15.7383 43.0353 15.7383C43.4712 15.7383 43.9265 15.7685 44.4124 15.8181C44.8883 15.869 45.405 15.9598 45.9516 16.0892V15.4479C45.9516 14.9979 45.9005 14.5671 45.7895 14.1666C45.6827 13.772 45.4888 13.4058 45.2217 13.0946C44.948 12.7836 44.5954 12.5427 44.15 12.3735C43.7044 12.2028 43.1366 12.0721 42.4592 12.0721C41.5485 12.0721 40.7184 12.1822 39.9587 12.3129C39.1994 12.4423 38.5719 12.5936 38.0958 12.7629L37.621 9.5481C38.1169 9.37745 38.8554 9.20681 39.8077 9.03753C40.7583 8.85587 41.7817 8.77605 42.874 8.77605H42.8743ZM121.033 22.8918C122.248 22.8918 123.147 22.8216 123.775 22.7005V18.715C123.553 18.6544 123.239 18.5843 122.824 18.5237C122.368 18.4568 121.908 18.4232 121.447 18.4232C121.012 18.4232 120.567 18.4535 120.121 18.5237C119.677 18.5843 119.271 18.704 118.918 18.8746C118.562 19.0453 118.269 19.2861 118.057 19.5958C117.833 19.9068 117.733 20.0871 117.733 20.5577C117.733 21.4784 118.057 22.011 118.644 22.3606C119.241 22.7211 120.031 22.8918 121.033 22.8918V22.8918ZM120.698 8.67697C122.003 8.67697 123.107 8.83661 123.998 9.15726C124.888 9.47792 125.607 9.92794 126.133 10.4991C126.659 11.0702 127.034 11.8519 127.256 12.6735C127.489 13.4951 127.601 14.3965 127.601 15.3887V25.4667C126.994 25.596 126.072 25.746 124.838 25.9277C123.604 26.108 122.217 26.1974 120.678 26.1974C119.656 26.1974 118.715 26.097 117.875 25.907C117.024 25.7171 116.306 25.4061 115.698 24.9754C115.101 24.5446 114.636 23.9927 114.292 23.3129C113.958 22.6317 113.785 21.6697 113.785 20.6678C113.785 19.7059 113.978 19.0948 114.353 18.4329C114.736 17.7723 115.253 17.2315 115.901 16.8103C116.559 16.3906 117.307 16.0892 118.168 15.9089C119.029 15.7286 119.929 15.6392 120.861 15.6392C121.296 15.6392 121.751 15.6695 122.237 15.719C122.722 15.7685 123.229 15.8594 123.775 15.9901V15.3488C123.775 14.8974 123.725 14.4667 123.614 14.0662C123.507 13.6714 123.313 13.3052 123.046 12.9941C122.772 12.6831 122.42 12.4423 121.974 12.273C121.529 12.1023 120.961 11.973 120.284 11.973C119.373 11.973 118.543 12.0831 117.783 12.2124C117.024 12.3432 116.396 12.4932 115.92 12.6638L115.445 9.44764C115.941 9.27699 116.68 9.10772 117.632 8.93707C118.583 8.76642 119.604 8.67697 120.698 8.67697V8.67697ZM108.815 6.81359C110.141 6.81359 111.225 5.75116 111.225 4.43826C111.225 3.12674 110.152 2.06431 108.815 2.06431C107.48 2.06431 106.407 3.12674 106.407 4.43826C106.407 5.75116 107.49 6.81359 108.816 6.81359H108.815ZM110.809 26.1974H106.832V9.28663L110.809 8.66596V26.1974ZM103.836 26.1974C97.349 26.2277 97.349 21.0078 97.349 20.1765L97.3379 0.622044L101.296 0V19.4348C101.296 19.9068 101.296 22.8918 103.836 22.9014V26.1974V26.1974ZM90.9713 17.5425C90.9713 15.8484 90.5964 14.4364 89.8679 13.4551C89.1391 12.4629 88.1174 11.973 86.8111 11.973C85.5062 11.973 84.4828 12.4629 83.7553 13.4551C83.0265 14.446 82.6714 15.8484 82.6714 17.5425C82.6714 19.2558 83.0365 20.4064 83.7653 21.3986C84.4942 22.4005 85.5159 22.8918 86.8222 22.8918C88.1271 22.8918 89.1502 22.3908 89.879 21.3986C90.6075 20.3967 90.9713 19.2558 90.9713 17.5425V17.5425ZM95.0193 17.5328C95.0193 18.8554 94.8277 19.8559 94.4323 20.9486C94.0381 22.0399 93.4814 22.9716 92.7637 23.7437C92.0446 24.5143 91.1839 25.1157 90.1717 25.5368C89.1599 25.9566 87.6007 26.1974 86.8219 26.1974C86.0417 26.1878 84.4939 25.9676 83.4916 25.5368C82.4893 25.1061 81.6286 24.5143 80.9109 23.7437C80.1918 22.9716 79.6354 22.0399 79.2301 20.9486C78.8258 19.8559 78.6234 18.8554 78.6234 17.5328C78.6234 16.2103 78.805 14.9373 79.2103 13.8556C79.6157 12.7739 80.1821 11.8519 80.9109 11.0812C81.6397 10.3091 82.5101 9.71738 83.5013 9.29764C84.5036 8.87652 85.6072 8.67697 86.8011 8.67697C87.9963 8.67697 89.0986 8.88615 90.1106 9.29764C91.124 9.71738 91.9946 10.3091 92.7026 11.0812C93.4201 11.8519 93.977 12.7739 94.3824 13.8556C94.8072 14.9373 95.0196 16.2103 95.0196 17.5328H95.0193ZM65.2327 17.5328C65.2327 19.1747 65.5965 20.9981 66.3253 21.7592C67.0541 22.5216 67.995 22.9014 69.1503 22.9014C69.7778 22.9014 70.3747 22.812 70.9311 22.6413C71.4877 22.4707 71.9322 22.2697 72.2876 22.0303V12.3033C72.0044 12.2427 70.82 12.0019 69.675 11.973C68.2382 11.9317 67.1457 12.5138 66.3766 13.4441C65.617 14.3772 65.2327 16.0094 65.2327 17.5328V17.5328ZM76.2343 25.2657C76.2343 27.9411 75.5458 29.8939 74.1587 31.1366C72.7732 32.378 70.6576 33 67.8034 33C66.7609 33 64.5953 32.7991 62.8642 32.4192L63.5014 29.3131C64.9496 29.6132 66.8625 29.6944 67.8648 29.6944C69.4529 29.6944 70.5871 29.3737 71.2645 28.7324C71.9434 28.0911 72.2762 27.1401 72.2762 25.8768V25.2355C71.882 25.4254 71.3656 25.6167 70.7284 25.8176C70.0915 26.0075 69.353 26.108 68.5211 26.108C67.4289 26.108 66.436 25.9373 65.5365 25.596C64.6358 25.2561 63.8556 24.7552 63.2182 24.0932C62.5813 23.4326 62.0743 22.6014 61.7206 21.6092C61.3663 20.6169 61.1831 18.8444 61.1831 17.5425C61.1831 16.3204 61.376 14.7873 61.7511 13.7648C62.1357 12.7437 62.6812 11.8615 63.4209 11.1307C64.1499 10.4 65.0409 9.83848 66.0834 9.427C67.126 9.01689 68.349 8.75679 69.6747 8.75679C70.9616 8.75679 72.1458 8.91643 73.2994 9.10772C74.453 9.29764 75.4344 9.49718 76.234 9.71738V25.2657H76.2343Z" fill="white"/>
</svg>
