<svg width="156" height="43" viewBox="0 0 156 43" fill="none" xmlns="http://www.w3.org/2000/svg">
<path fill-rule="evenodd" clip-rule="evenodd" d="M0 21.5C0 9.62362 9.62362 0 21.5 0C33.3764 0 43 9.62362 43 21.5C43 33.3764 33.3764 43 21.5 43C9.62362 43 0 33.3764 0 21.5ZM35.9058 31.1533L37.3286 31.0248C38.119 31.0149 38.7514 30.3628 38.7416 29.5724C38.7217 28.7819 38.0696 28.1595 37.2792 28.1693L35.8465 28.1101L32.6452 27.8334C31.8054 27.6951 31.1631 26.9738 31.1434 26.0944L30.9557 16.204C30.8568 10.9278 26.4995 6.72862 21.2233 6.82743C15.9472 6.92623 11.7479 11.2835 11.8467 16.5597L12.0345 26.4501C12.0542 27.3295 11.4318 28.0804 10.6018 28.2484L7.41039 28.6436L5.98759 28.7622C5.19715 28.7819 4.57468 29.434 4.58444 30.2245C4.60432 31.0149 5.25643 31.6374 6.04688 31.6275L7.47955 31.6967L11.7677 31.8844C12.2518 31.8745 12.6866 31.6769 13.0028 31.3607L14.4947 29.8095L15.9768 28.3077C16.1448 28.1496 16.372 28.0607 16.6289 28.0705C17.0735 28.0903 17.4193 28.4262 17.4688 28.8709C17.4984 29.0882 17.4391 29.2858 17.3304 29.4538L17.3107 29.4834L14.7318 32.7934L13.8031 33.8803C13.2597 34.4533 13.2695 35.3525 13.8426 35.9058C14.4157 36.4492 15.3148 36.4393 15.8681 35.8663L16.9352 34.9078L20.8973 31.2718L21.085 31.094C21.2332 30.9458 21.4506 30.8568 21.6779 30.847C21.9051 30.8371 22.1225 30.926 22.2806 31.0742L22.4782 31.2422L26.5687 34.73L27.6654 35.6489C28.2385 36.1923 29.1376 36.1824 29.6909 35.6094C30.2344 35.0363 30.2245 34.1372 29.6514 33.5839L28.6831 32.5266L25.9858 29.3155L25.966 29.2858C25.8573 29.1179 25.798 28.9203 25.8079 28.7029C25.8375 28.2583 26.1735 27.9124 26.6181 27.8729C26.8651 27.8532 27.1022 27.9322 27.2801 28.0804L28.8215 29.523L30.3727 31.0149C30.6988 31.3212 31.1434 31.5089 31.6275 31.4991L35.9058 31.1533ZM24.5234 13.5166C25.7091 14.228 26.8651 14.9789 28.0014 15.7594C28.525 16.125 28.4954 16.8957 27.9421 17.2316C26.8058 17.943 25.6597 18.6149 24.5037 19.2769C24.059 19.5338 23.5354 19.3559 23.2785 18.9311C23.0117 18.4865 23.1105 17.9529 23.5749 17.6565C23.9792 17.4015 24.3914 17.1582 24.8212 16.9044L24.8215 16.9043L24.8215 16.9043L24.8216 16.9042L24.8218 16.9041C25.0745 16.7549 25.3334 16.6021 25.6004 16.4412C25.2785 16.2329 24.9702 16.0314 24.669 15.8345L24.6682 15.834C24.341 15.6202 24.0222 15.4118 23.7034 15.2061C23.3971 15.0085 23.1994 14.7516 23.1896 14.3663C23.1797 13.645 23.901 13.1411 24.5234 13.5166ZM18.3659 17.1562L18.3655 17.156C17.988 16.9318 17.5974 16.7 17.1723 16.4412C17.4028 16.2921 17.6239 16.15 17.8385 16.012L17.8389 16.0118C18.2499 15.7476 18.6371 15.4988 19.02 15.2456C19.6227 14.8504 19.7808 14.3169 19.4449 13.8228C19.1188 13.3486 18.5852 13.2893 17.9924 13.6648C17.0044 14.2971 16.0164 14.9393 15.0285 15.5815L15.0283 15.5816C14.1983 16.125 14.2181 16.8858 15.0678 17.3996C16.0657 17.9924 17.0636 18.5853 18.0616 19.1682C18.6544 19.514 19.2077 19.4251 19.4943 18.941C19.8005 18.4469 19.6227 17.9035 19.0397 17.5577C18.8167 17.4239 18.5937 17.2914 18.3659 17.1562Z" fill="white"/>
<path fill-rule="evenodd" clip-rule="evenodd" d="M57.0157 13.7993C56.2154 13.7993 55.4645 13.829 54.7827 13.8883V20.6366H56.4426C57.3714 20.6366 58.1816 20.5872 58.8831 20.4884C59.5846 20.3896 60.1775 20.2118 60.6418 19.945C61.1161 19.6881 61.4718 19.3324 61.7089 18.8878C61.9461 18.4432 62.0745 17.88 62.0745 17.1982C62.0745 16.556 61.956 16.0126 61.7089 15.5679C61.4718 15.1233 61.126 14.7775 60.6715 14.5107C60.217 14.2538 59.6834 14.0661 59.061 13.9574C58.4385 13.8586 57.7567 13.7993 57.0157 13.7993ZM56.7489 10.519C59.7625 10.519 62.0646 11.0723 63.6653 12.1789C65.2659 13.2855 66.0663 14.9652 66.0663 17.2377C66.0663 20.0636 64.6731 21.9804 61.8769 22.9882C62.2623 23.4526 62.6871 24.0158 63.1713 24.6778C63.6554 25.3398 64.1494 26.061 64.6435 26.8317C65.1474 27.6024 65.6315 28.3928 66.086 29.2129C66.5504 30.0231 66.9555 30.8235 67.3211 31.604H63.0725C62.6871 30.8827 62.282 30.1516 61.8374 29.4204C61.3928 28.6893 60.9481 27.9779 60.4936 27.2862C60.0391 26.5946 59.5945 25.9425 59.1499 25.3299C58.7053 24.7173 58.3002 24.1739 57.9148 23.6897C57.6283 23.7095 57.3912 23.7194 57.1935 23.7194H56.6205H54.7827V31.604H50.9886V11.0328C51.9075 10.8352 52.8955 10.6968 53.9429 10.6277C54.9902 10.5585 55.919 10.519 56.7489 10.519Z" fill="white"/>
<path fill-rule="evenodd" clip-rule="evenodd" d="M103.899 11.2403C103.899 11.922 103.681 12.4655 103.237 12.8706C102.792 13.2757 102.268 13.4733 101.666 13.4733C101.043 13.4733 100.51 13.2757 100.065 12.8706C99.6205 12.4655 99.4031 11.9319 99.4031 11.2403C99.4031 10.5388 99.6205 9.98544 100.065 9.58034C100.51 9.17524 101.043 8.97763 101.666 8.97763C102.268 8.97763 102.792 9.17524 103.237 9.58034C103.681 9.98544 103.899 10.5388 103.899 11.2403Z" fill="white"/>
<path fill-rule="evenodd" clip-rule="evenodd" d="M74.7117 29.0351C75.8381 29.0351 76.6878 28.9758 77.2708 28.8572V24.826C77.0732 24.7667 76.7767 24.7074 76.4013 24.6481C76.0159 24.5888 75.601 24.5592 75.1366 24.5592C74.7315 24.5592 74.3264 24.5888 73.9114 24.6481C73.4964 24.7074 73.1308 24.8161 72.7949 24.9841C72.459 25.1422 72.1922 25.3694 71.9946 25.6658C71.797 25.9524 71.6883 26.3278 71.6883 26.7626C71.6883 27.6222 71.955 28.2249 72.4985 28.5509C73.0518 28.8671 73.7829 29.0351 74.7117 29.0351ZM74.4054 15.4593C75.6108 15.4593 76.6285 15.6075 77.4486 15.9138C78.2687 16.2102 78.9307 16.635 79.4247 17.1785C79.9187 17.7219 80.2646 18.374 80.4819 19.1546C80.6894 19.9252 80.7981 20.775 80.7981 21.6939V31.2384C80.2349 31.357 79.3852 31.5052 78.2489 31.6732C77.1127 31.8411 75.8282 31.9301 74.4054 31.9301C73.4569 31.9301 72.5973 31.8411 71.8167 31.6633C71.0362 31.4854 70.3643 31.189 69.811 30.7938C69.2577 30.3887 68.8229 29.8749 68.5166 29.2327C68.2005 28.5905 68.0522 27.8 68.0522 26.8515C68.0522 25.9524 68.2301 25.1817 68.5759 24.5592C68.9316 23.9367 69.4059 23.4328 70.0086 23.0376C70.6113 22.6424 71.3128 22.3657 72.1033 22.1978C72.8937 22.0298 73.7237 21.9409 74.5931 21.9409C74.9982 21.9409 75.4132 21.9705 75.8579 22.0199C76.3025 22.0693 76.7767 22.1582 77.2708 22.2768V21.6741C77.2708 21.2492 77.2214 20.854 77.1226 20.4687C77.0238 20.0833 76.8459 19.7474 76.5989 19.4609C76.3519 19.1743 76.0159 18.9471 75.601 18.7791C75.186 18.621 74.6722 18.542 74.0497 18.542C73.2099 18.542 72.4293 18.6013 71.7278 18.7198C71.0263 18.8384 70.4532 18.9767 70.0086 19.1447L69.5541 16.1904C70.0185 16.0323 70.6903 15.8742 71.5697 15.7063C72.459 15.5383 73.4075 15.4593 74.4054 15.4593Z" fill="white"/>
<path fill-rule="evenodd" clip-rule="evenodd" d="M93.8898 23.7984C93.8898 22.1681 93.5242 20.9034 92.793 20.0043C92.0619 19.1052 90.8762 18.6507 89.2558 18.6507C88.91 18.6507 88.5543 18.6704 88.1887 18.7001C87.8132 18.7297 87.4477 18.7989 87.092 18.8977V27.8889C87.418 28.1063 87.8429 28.3138 88.3764 28.5015C88.91 28.6893 89.4732 28.7881 90.0759 28.7881C91.3999 28.7881 92.3682 28.3336 92.9808 27.4344C93.5835 26.5353 93.8898 25.32 93.8898 23.7984ZM97.6246 23.7391C97.6246 24.9445 97.4665 26.0512 97.1602 27.0491C96.844 28.0569 96.3994 28.9165 95.8165 29.6378C95.2335 30.3591 94.5024 30.9223 93.6329 31.3274C92.7634 31.7325 91.7655 31.9301 90.6588 31.9301C89.9178 31.9301 89.236 31.8411 88.6136 31.6633C87.9911 31.4854 87.4773 31.278 87.0722 31.0606V37.1766H83.4263V16.3584C84.1673 16.1608 85.0862 15.9632 86.1731 15.7853C87.2599 15.6075 88.4061 15.5185 89.6115 15.5185C90.8564 15.5185 91.9729 15.7063 92.961 16.0916C93.949 16.4769 94.7889 17.0204 95.4805 17.7318C96.1722 18.4432 96.7057 19.3126 97.0812 20.3205C97.4369 21.3283 97.6246 22.4744 97.6246 23.7391Z" fill="white"/>
<path fill-rule="evenodd" clip-rule="evenodd" d="M99.8378 31.5941H103.484V15.8446H99.8378V31.5941Z" fill="white"/>
<path fill-rule="evenodd" clip-rule="evenodd" d="M133.807 25.4485C133.333 24.164 132.868 22.9289 132.404 21.7235C131.94 20.5181 131.455 19.3719 130.952 18.2653C130.438 19.3719 129.944 20.528 129.479 21.7235C129.015 22.9289 128.551 24.164 128.096 25.4485H133.807ZM135.823 31.1298C135.576 30.4678 135.339 29.8156 135.111 29.1734C134.894 28.5312 134.657 27.8791 134.43 27.2171H127.484L126.09 31.1298H123.857C124.45 29.5093 125.003 28.0075 125.517 26.6341C126.031 25.2607 126.535 23.9466 127.029 22.7116C127.523 21.4765 128.017 20.2908 128.501 19.1645C128.985 18.0381 129.499 16.9216 130.033 15.815H131.999C132.532 16.9216 133.036 18.0381 133.53 19.1645C134.015 20.2908 134.509 21.4765 135.003 22.7116C135.497 23.9466 136.001 25.2607 136.514 26.6341C137.028 28.0075 137.581 29.5093 138.174 31.1298H135.823Z" fill="white"/>
<path fill-rule="evenodd" clip-rule="evenodd" d="M144.379 17.544C143.46 17.544 142.769 17.5638 142.275 17.6132V23.6205H143.885C144.626 23.6205 145.288 23.5711 145.881 23.4723C146.474 23.3735 146.968 23.2154 147.373 22.9882C147.778 22.7609 148.094 22.4448 148.312 22.0495C148.529 21.6543 148.648 21.1405 148.648 20.5279C148.648 19.9351 148.529 19.451 148.302 19.0656C148.075 18.6803 147.758 18.374 147.373 18.1467C146.978 17.9195 146.533 17.7614 146.009 17.6725C145.506 17.5836 144.962 17.544 144.379 17.544ZM144.211 15.6667C146.365 15.6667 148.015 16.0718 149.181 16.8919C150.337 17.712 150.92 18.9273 150.92 20.5477C150.92 21.4271 150.762 22.1879 150.446 22.8103C150.13 23.4328 149.675 23.9466 149.072 24.3319C148.48 24.7272 147.748 25.0038 146.889 25.1817C146.029 25.3595 145.071 25.4484 143.994 25.4484H142.294V31.1297H140.15V16.0422C140.753 15.894 141.435 15.7952 142.176 15.7458C142.907 15.6865 143.589 15.6667 144.211 15.6667Z" fill="white"/>
<path fill-rule="evenodd" clip-rule="evenodd" d="M153.222 31.1298H155.366V15.815H153.222V31.1298Z" fill="white"/>
<path fill-rule="evenodd" clip-rule="evenodd" d="M109.432 23.6798C109.432 25.2904 109.817 26.5452 110.578 27.4542C111.339 28.3632 112.396 28.8276 113.74 28.8276C114.323 28.8276 114.817 28.798 115.232 28.7486C115.647 28.6991 115.983 28.6399 116.24 28.5806V19.5498C115.913 19.3324 115.489 19.1249 114.955 18.9372C114.422 18.7495 113.858 18.6507 113.256 18.6507C111.932 18.6507 110.963 19.1052 110.351 20.0043C109.738 20.9034 109.432 22.1286 109.432 23.6798ZM119.885 31.11C119.164 31.3274 118.255 31.5349 117.158 31.7127C116.062 31.8906 114.916 31.9795 113.71 31.9795C112.465 31.9795 111.349 31.7918 110.361 31.4064C109.373 31.0211 108.533 30.4776 107.841 29.7662C107.149 29.0548 106.616 28.1952 106.24 27.1776C105.865 26.1599 105.687 25.0236 105.687 23.7589C105.687 22.5139 105.845 21.3876 106.152 20.3699C106.458 19.3522 106.922 18.4926 107.525 17.7614C108.128 17.0401 108.859 16.477 109.728 16.0916C110.588 15.6964 111.586 15.5087 112.712 15.5087C113.473 15.5087 114.145 15.5976 114.728 15.7754C115.311 15.9533 115.815 16.1608 116.23 16.3781V9.56059H119.876L119.885 31.11Z" fill="white"/>
</svg>
