<svg width="113" height="35" viewBox="0 0 113 35" fill="none">
<path d="M79.5466 6.69421H73.7592C73.6789 6.69445 73.6019 6.72665 73.5451 6.78379C73.4883 6.84093 73.4563 6.91837 73.4561 6.99917V10.5014C73.4565 10.5821 73.4886 10.6594 73.5453 10.7165C73.6021 10.7736 73.679 10.8059 73.7592 10.8063H79.5466C79.6268 10.8059 79.7037 10.7736 79.7604 10.7165C79.8172 10.6594 79.8493 10.5821 79.8497 10.5014V6.99917C79.8495 6.91837 79.8175 6.84093 79.7607 6.78379C79.7039 6.72665 79.6269 6.69445 79.5466 6.69421" fill="black"/>
<path d="M47.8119 22.3758C46.7953 22.3758 46.2621 21.9501 46.2621 20.7876V16.8743H49.5108C49.5911 16.874 49.6681 16.8418 49.7249 16.7847C49.7817 16.7275 49.8137 16.6501 49.814 16.5693V12.8939L54.0849 27.2162C54.1134 27.2984 54.1657 27.3701 54.2351 27.4221C54.3046 27.4741 54.3879 27.5039 54.4744 27.5077H59.1959C59.2828 27.5037 59.3667 27.4741 59.4371 27.4225C59.5074 27.3708 59.5611 27.2995 59.5914 27.2174L61.6141 20.873L62.6424 24.1897L63.5809 27.2169C63.6104 27.299 63.6636 27.3705 63.7335 27.4223C63.8035 27.4741 63.8871 27.5038 63.9739 27.5077H68.725C68.8115 27.5039 68.8949 27.4741 68.9645 27.4222C69.034 27.3703 69.0866 27.2987 69.1154 27.2166L73.4507 12.8536V27.2089C73.4507 27.2898 73.4827 27.3673 73.5395 27.4245C73.5964 27.4817 73.6735 27.5138 73.7539 27.5138H79.5466C79.627 27.5136 79.7039 27.4814 79.7607 27.4243C79.8175 27.3671 79.8496 27.2897 79.8498 27.2089V12.2169C79.8496 12.136 79.8175 12.0586 79.7607 12.0015C79.7039 11.9443 79.627 11.9121 79.5466 11.9119H68.0047C67.9189 11.9154 67.8363 11.9457 67.7683 11.9985C67.7003 12.0513 67.6503 12.1241 67.6253 12.2068L66.1446 17.9124L66.0669 18.2063L64.2662 12.1473C64.2376 12.0648 64.1851 11.9928 64.1155 11.9406C64.0458 11.8884 63.9622 11.8584 63.8754 11.8546H59.3792C59.2927 11.8584 59.2094 11.8882 59.1401 11.9403C59.0707 11.9923 59.0185 12.0642 58.9903 12.1464L57.302 17.8587L57.2159 18.1503L57.1419 17.855L56.4265 15.0311L55.7121 12.2067C55.6877 12.1242 55.6382 12.0514 55.5706 11.9985C55.503 11.9456 55.4206 11.9153 55.3351 11.9119H46.2621V7.01359C46.2621 6.96577 46.2509 6.91862 46.2295 6.87595C46.208 6.83328 46.1769 6.79628 46.1386 6.76794C46.1003 6.7396 46.0559 6.72072 46.0091 6.71281C45.9622 6.70491 45.9141 6.7082 45.8687 6.72243L40.2251 8.492C40.1201 8.5249 40.0284 8.59067 39.9633 8.67971C39.8982 8.76876 39.863 8.87641 39.863 8.98695V11.9119H38.3618C38.2814 11.9121 38.2044 11.9443 38.1476 12.0015C38.0908 12.0586 38.0588 12.136 38.0586 12.2168V16.5693C38.0588 16.6501 38.0908 16.7275 38.1476 16.7847C38.2044 16.8418 38.2814 16.874 38.3618 16.8743H39.863V22.205C39.863 25.9768 41.8929 27.7347 45.6703 27.7347C47.129 27.7347 48.5631 27.4331 49.5728 26.948C49.6287 26.9203 49.6756 26.8772 49.7082 26.8238C49.7408 26.7704 49.7577 26.7088 49.757 26.6461L49.757 22.3784C49.7571 22.3291 49.7454 22.2805 49.7227 22.2368C49.7001 22.1931 49.6672 22.1556 49.6269 22.1275C49.5867 22.0994 49.5402 22.0816 49.4916 22.0756C49.4429 22.0696 49.3936 22.0756 49.3478 22.0931C48.8567 22.2789 48.3365 22.3747 47.8119 22.3758V22.3758Z" fill="black"/>
<path d="M87.1705 6.69421C87.2508 6.69445 87.3278 6.72665 87.3846 6.78379C87.4414 6.84093 87.4734 6.91837 87.4736 6.99917V27.2098C87.4731 27.2904 87.441 27.3675 87.3842 27.4244C87.3274 27.4813 87.2506 27.5133 87.1705 27.5135H81.3777C81.2975 27.5136 81.2205 27.4816 81.1637 27.4247C81.1069 27.3677 81.0748 27.2905 81.0745 27.2098V6.99917C81.0753 6.91853 81.1075 6.8414 81.1641 6.78437C81.2208 6.72734 81.2975 6.69497 81.3777 6.69421H87.1705Z" fill="black"/>
<path d="M94.7881 6.69421C94.8685 6.69445 94.9454 6.72665 95.0022 6.78379C95.059 6.84093 95.0911 6.91837 95.0913 6.99917V10.5014C95.0909 10.5821 95.0588 10.6594 95.002 10.7165C94.9453 10.7736 94.8684 10.8059 94.7881 10.8063H88.9954C88.9151 10.8059 88.8382 10.7736 88.7815 10.7165C88.7247 10.6594 88.6926 10.5821 88.6922 10.5014V6.99917C88.6924 6.91837 88.7244 6.84093 88.7812 6.78379C88.8381 6.72665 88.915 6.69445 88.9954 6.69421H94.7881Z" fill="black"/>
<path d="M94.7881 11.9119C94.8685 11.9121 94.9454 11.9443 95.0022 12.0015C95.059 12.0586 95.0911 12.136 95.0913 12.2169V27.2089C95.0911 27.2897 95.059 27.3671 95.0022 27.4243C94.9454 27.4814 94.8685 27.5136 94.7881 27.5139H88.9954C88.915 27.5138 88.8379 27.4817 88.781 27.4245C88.7242 27.3673 88.6922 27.2898 88.6922 27.2089V12.2169C88.6922 12.136 88.7242 12.0584 88.781 12.0013C88.8379 11.9441 88.915 11.9119 88.9954 11.9119H94.7881Z" fill="black"/>
<path d="M104.373 11.543C99.2996 11.543 95.692 15.2868 95.692 19.6526V19.71C95.692 24.0771 99.2717 27.7635 104.318 27.7635C109.391 27.7635 113 24.0197 113 19.6526V19.5965C113 15.2294 109.419 11.543 104.373 11.543M106.854 19.71C106.854 21.1848 105.811 22.4034 104.373 22.4034C102.964 22.4034 101.836 21.1848 101.836 19.6526V19.5965C101.836 18.1217 102.879 16.9031 104.318 16.9031C105.727 16.9031 106.854 18.1217 106.854 19.6526V19.71Z" fill="black"/>
<path d="M17.0012 4.77694e-10C13.6386 0.000120651 10.3515 1.00331 7.55561 2.88272C4.75974 4.76212 2.58068 7.43332 1.29396 10.5585C0.00724579 13.6837 -0.329325 17.1226 0.326811 20.4402C0.982947 23.7579 2.60232 26.8053 4.98015 29.1971C7.35798 31.5889 10.3875 33.2177 13.6855 33.8775C16.9836 34.5373 20.4021 34.1985 23.5087 32.9039C26.6153 31.6093 29.2705 29.4171 31.1386 26.6044C33.0067 23.7918 34.0037 20.4851 34.0036 17.1024C34.0033 12.5664 32.2119 8.21636 29.0233 5.00906C25.8348 1.80177 21.5103 -3.38763e-05 17.0012 4.77694e-10M17.0012 29.6986C14.5248 29.6985 12.1041 28.9597 10.0451 27.5756C7.98609 26.1916 6.38133 24.2244 5.43371 21.9229C4.48609 19.6213 4.23819 17.0888 4.72133 14.6456C5.20448 12.2023 6.39699 9.95804 8.14806 8.19655C9.89913 6.43505 12.1301 5.23545 14.5589 4.74942C16.9877 4.2634 19.5052 4.51278 21.7932 5.46604C24.0811 6.4193 26.0366 8.03362 27.4125 10.1049C28.7884 12.1761 29.5228 14.6113 29.5229 17.1024C29.5229 18.7566 29.1991 20.3945 28.5698 21.9228C27.9405 23.4511 27.0182 24.8397 25.8554 26.0093C24.6927 27.179 23.3123 28.1068 21.7931 28.7399C20.2739 29.3729 18.6456 29.6987 17.0012 29.6986" fill="black"/>
<path d="M17.7002 12.8434C17.7 12.1399 17.9073 11.4522 18.2957 10.8673C18.6842 10.2823 19.2363 9.82639 19.8824 9.55713C20.5284 9.28787 21.2393 9.21739 21.9252 9.3546C22.6111 9.49181 23.2411 9.83055 23.7356 10.328C24.23 10.8254 24.5668 11.4592 24.7032 12.1491C24.8396 12.8391 24.7695 13.5542 24.5018 14.2041C24.2342 14.854 23.7809 15.4094 23.1994 15.8002C22.6179 16.1909 21.9343 16.3994 21.235 16.3993C20.7708 16.3993 20.3111 16.3073 19.8823 16.1286C19.4534 15.9499 19.0637 15.688 18.7355 15.3578C18.4072 15.0276 18.1468 14.6356 17.9692 14.2042C17.7916 13.7728 17.7001 13.3104 17.7002 12.8434Z" fill="black"/>
<path d="M17.7002 21.3624C17.7 20.6589 17.9073 19.9712 18.2957 19.3863C18.6842 18.8013 19.2363 18.3454 19.8824 18.0761C20.5284 17.8069 21.2393 17.7364 21.9252 17.8736C22.6111 18.0108 23.2411 18.3495 23.7355 18.847C24.23 19.3444 24.5668 19.9781 24.7032 20.6681C24.8396 21.358 24.7695 22.0732 24.5018 22.7231C24.2342 23.373 23.7809 23.9284 23.1994 24.3191C22.6179 24.7099 21.9343 24.9184 21.235 24.9183C20.7708 24.9183 20.3111 24.8263 19.8823 24.6476C19.4534 24.4689 19.0637 24.207 18.7355 23.8768C18.4072 23.5466 18.1468 23.1546 17.9692 22.7232C17.7916 22.2918 17.7001 21.8294 17.7002 21.3624" fill="black"/>
<path d="M9.23172 21.3624C9.2316 20.6589 9.43886 19.9712 9.8273 19.3863C10.2157 18.8013 10.7679 18.3454 11.4139 18.0761C12.06 17.8069 12.7709 17.7364 13.4568 17.8736C14.1426 18.0108 14.7726 18.3495 15.2671 18.847C15.7616 19.3444 16.0983 19.9781 16.2347 20.6681C16.3711 21.358 16.301 22.0732 16.0334 22.7231C15.7657 23.373 15.3125 23.9284 14.731 24.3191C14.1495 24.7099 13.4659 24.9184 12.7666 24.9183C12.3024 24.9183 11.8427 24.8263 11.4138 24.6476C10.9849 24.4689 10.5953 24.207 10.267 23.8768C9.93877 23.5466 9.67839 23.1546 9.50076 22.7232C9.32312 22.2918 9.2317 21.8294 9.23172 21.3624Z" fill="black"/>
<path d="M9.23172 12.8435C9.2316 12.14 9.43886 11.4524 9.8273 10.8674C10.2157 10.2824 10.7679 9.8265 11.4139 9.55724C12.06 9.28798 12.7709 9.2175 13.4567 9.35471C14.1426 9.49192 14.7726 9.83065 15.2671 10.3281C15.7616 10.8255 16.0983 11.4593 16.2347 12.1492C16.3711 12.8392 16.301 13.5543 16.0334 14.2042C15.7657 14.8541 15.3125 15.4095 14.731 15.8003C14.1495 16.191 13.4659 16.3995 12.7666 16.3994C12.3024 16.3994 11.8427 16.3074 11.4138 16.1288C10.9849 15.9501 10.5953 15.6881 10.267 15.3579C9.93877 15.0277 9.67839 14.6357 9.50076 14.2043C9.32312 13.7729 9.2317 13.3105 9.23172 12.8435" fill="black"/>
</svg>
