<svg xmlns="http://www.w3.org/2000/svg" id="Capa_2" width="100" height="38" fill="#fff" viewBox="0 0 716.81 252.82"><g id="Capa_1-2"><path fill="#fff" d="M0 86.33c0 24.23 18.06 43.21 41.11 43.21 8.02.14 15.9-2.06 22.69-6.32l1.23-.78v5.36H91.6V45.02H65v5.19l-1.23-.79c-6.79-4.26-14.67-6.45-22.69-6.31C18.06 43.15 0 62.12 0 86.33Zm68.42 0c0 13.76-7.93 21.66-21.75 21.66-11.75 0-20.62-9.32-20.62-21.67s8.87-21.83 20.62-21.83c19.63.01 21.75 15.28 21.75 21.85ZM137.91 88.08V45.02h-26.58v47.4c0 23.07 13.82 38 35.2 38 8.34 0 15.53-2.54 22.64-8l1.29-1v6.39H197V45.02h-26.54v52.75l-.21.23c-5.09 5.63-10.64 8.61-16.07 8.61-10.34 0-16.27-6.76-16.27-18.53ZM266.55 106.09c-9 0-14-4.79-14-13.48v-25h28.69V45.02h-28.7v-34L226 24.73v20.29h-16.54v22.61H226v25.84c0 22.43 13 36.93 33.1 36.93 8 0 14.08-.61 24.69-3.94l-2.93-22.31c-6.1 1.18-10.46 1.94-14.31 1.94ZM337 43.15c-25.93 0-44 17.75-44 43.18s18.62 43.38 45.27 43.38c20.18 0 35.76-10.47 40-26.75h-26.4c-2.7 3.93-7.4 6.09-13.29 6.09-10 0-17-5-19.72-14.14l-.3-1h60.29c.41-3.08.57-6.18.49-9.28 0-24.44-17.41-41.48-42.34-41.48Zm-18.75 35.81.25-1c2.29-9.34 9-14.7 18.51-14.7s15.87 5.24 17.48 14.75l.16.93-36.4.02ZM445.57 42.45c-8.33-.03-16.4 2.86-22.81 8.18l-1.29 1v-6.61h-26.56v82.74h26.56V75.43l.2-.23c5-5.7 9.06-8.79 16.26-8.79 10.22 0 16.08 6.76 16.08 18.54v42.85h26.75V80.43c0-23.07-13.76-37.98-35.19-37.98ZM548 106.09c-9 0-14-4.79-14-13.48v-25h28.7V45.02H534V3.68l-26.56 13.68v27.66h-16.51v22.61h16.51v25.84c0 22.43 13 36.93 33.11 36.93 8 0 14.08-.61 24.69-3.94l-2.93-22.31c-6.08 1.18-10.43 1.94-14.31 1.94ZM581.73 45.06h26.58v82.74h-26.58zM666.33 43.15c-23.05 0-41.11 19-41.11 43.18s18.06 43.21 41.11 43.21c8.01.13 15.89-2.06 22.67-6.32l1.23-.78v5.36h26.58V45.02h-26.56v5.19l-1.25-.75c-6.79-4.26-14.66-6.45-22.67-6.31Zm27.31 43.19c0 13.76-7.92 21.66-21.74 21.66-11.76 0-20.62-9.32-20.62-21.67s8.86-21.83 20.62-21.83c19.62 0 21.74 15.27 21.74 21.84ZM594.13.02c-8.22.34-15 7.1-15 15.07-.06 4 1.52 7.85 4.37 10.66 3.15 3.04 7.41 4.66 11.78 4.48 8.3-.2 15.3-7.08 15.3-15 .03-4.09-1.62-8.01-4.58-10.83-3.19-3.02-7.48-4.61-11.87-4.38ZM394.91 144.21h85.85v16.42h-85.85zM429.72 198.17c3.14 1.76 5.6 4.24 7.39 7.43 1.79 3.19 2.68 6.91 2.68 11.14s-.89 7.95-2.68 11.14c-1.79 3.19-4.25 5.67-7.39 7.43-3.14 1.76-6.62 2.64-10.45 2.64-5.67 0-9.98-1.79-12.94-5.36v4.75h-11.41v-56.83h11.95v19.99c3.01-3.32 7.15-4.98 12.41-4.98 3.83 0 7.31.88 10.45 2.64Zm-4.98 26.88c1.97-2.07 2.95-4.84 2.95-8.31s-.98-6.24-2.95-8.31c-1.97-2.07-4.48-3.1-7.54-3.1s-5.58 1.03-7.54 3.1c-1.97 2.07-2.95 4.84-2.95 8.31s.98 6.24 2.95 8.31c1.96 2.07 4.48 3.1 7.54 3.1s5.58-1.03 7.54-3.1ZM487.51 196.14l-18.61 43.73c-1.89 4.75-4.23 8.09-7.01 10.03-2.78 1.94-6.14 2.91-10.07 2.91-2.14 0-4.26-.33-6.36-1-2.09-.66-3.8-1.58-5.13-2.76l4.37-8.5c.92.82 1.98 1.46 3.18 1.92 1.2.46 2.39.69 3.56.69 1.63 0 2.96-.4 3.98-1.19 1.02-.79 1.94-2.11 2.76-3.94l.15-.38-17.85-41.51h12.33l11.57 27.96 11.64-27.96h11.49ZM586.39 228.15c-1.6 0-3.11-.2-4.55-.6-1.44-.4-2.7-1.03-3.79-1.88-1.09-.85-1.99-1.94-2.67-3.27-.69-1.33-1.07-2.95-1.12-4.87h22.49c.65-.03 2.32-.19 3.24-1.11.87-.87 1.1-1.86 1.15-2.4.01-.39.02-.79.02-1.2 0-3.56-.43-6.73-1.28-9.5-.85-2.76-2.05-5.07-3.6-6.9-1.54-1.84-3.4-3.23-5.58-4.19-2.18-.96-4.63-1.44-7.35-1.44-3.25 0-6.13.64-8.66 1.92-2.53 1.28-4.66 3.01-6.38 5.19-1.74 2.18-3.05 4.71-3.95 7.58-.91 2.87-1.36 5.91-1.36 9.09 0 3.46.48 6.58 1.44 9.34.96 2.77 2.35 5.12 4.19 7.06 1.84 1.94 4.09 3.43 6.75 4.47 2.66 1.04 5.72 1.56 9.18 1.56 2.77 0 5.39-.23 7.86-.68 2.48-.45 5.24-1.07 8.11-2.47l.02-8.76c-2.9 1.2-5.88 2.15-8.22 2.53-1.74.29-3.71.52-5.95.52Zm-11.49-22.31c.37-1.2.89-2.3 1.56-3.31.66-1.01 1.5-1.85 2.51-2.52 1.01-.66 2.24-1 3.67-1s2.64.32 3.63.96c.98.64 1.76 1.47 2.35 2.48.58 1.01 1 2.11 1.24 3.31.24 1.2.36 2.38.36 3.55h-15.96c.05-1.12.27-2.28.64-3.47ZM712.9 201.57c-.96-.53-2.17-1.05-3.64-1.56-1.46-.5-3.05-.76-4.75-.76-1.81 0-3.18.4-4.11 1.2-.93.8-1.4 1.81-1.4 3.03s.49 2.25 1.48 3.07c.98.83 2.75 1.77 5.31 2.84 3.78 1.54 6.56 3.42 8.34 5.63 1.78 2.21 2.67 4.85 2.67 7.94 0 4.26-1.51 7.66-4.55 10.22-3.03 2.55-7.35 3.83-12.93 3.83-2.45 0-4.78-.27-6.98-.8-2.21-.53-4.06-1.25-5.55-2.16l2.23-8.54c1.17.69 2.73 1.36 4.67 1.99 1.94.64 3.84.96 5.7.96 2.08 0 3.62-.4 4.63-1.2 1.01-.8 1.51-1.89 1.51-3.28s-.45-2.5-1.35-3.35c-.91-.85-2.58-1.81-5.03-2.87-4.15-1.7-7.08-3.67-8.78-5.91-1.7-2.24-2.56-4.58-2.56-7.03 0-1.96.39-3.82 1.16-5.55.77-1.73 1.86-3.22 3.27-4.47 1.41-1.25 3.11-2.24 5.11-2.95 1.99-.72 4.24-1.08 6.75-1.08 2.28 0 4.38.24 6.27.72 1.89.48 3.47 1.07 4.75 1.76l-2.23 8.3ZM679.98 236.21h-11.82v-44.46h11.82v44.46ZM520.25 236.21h-11.81v-44.46h11.81v44.46ZM680.38 179.51c0 1.92-.59 3.45-1.8 4.59-1.2 1.14-2.73 1.71-4.59 1.71s-3.38-.6-4.55-1.79c-1.17-1.2-1.75-2.7-1.75-4.51s.58-3.38 1.75-4.55 2.69-1.76 4.55-1.76 3.45.59 4.63 1.76c1.17 1.17 1.75 2.69 1.75 4.55ZM637.11 181.02h11.65v10.73h13.17v9.58h-13.17v18.5c0 2.72.43 4.67 1.28 5.85.85 1.17 2.18 1.76 3.99 1.76.85 0 1.55-.04 2.11-.12.56-.08 1.13-.17 1.72-.28l.02 8.91c-.79.32-1.75.61-3.14.8-1.38.18-2.92.27-4.63.27-3.19 0-5.67-.6-7.43-1.8-1.75-1.2-3.04-2.65-3.87-4.35-.82-1.71-1.31-3.47-1.47-5.31-.16-1.83-.24-3.36-.24-4.59v-39.94ZM520.65 179.51c0 1.92-.6 3.45-1.8 4.59-1.19 1.14-2.72 1.71-4.59 1.71s-3.38-.6-4.55-1.79c-1.17-1.2-1.75-2.7-1.75-4.51s.58-3.38 1.75-4.55 2.69-1.76 4.55-1.76 3.46.59 4.63 1.76 1.76 2.69 1.76 4.55ZM630.15 192.62c-.86-.46-1.85-.86-2.98-1.21-.67-.2-1.57-.39-2.1-.47-1.27-.2-2.91-.39-5.17-.1-1.25.16-2.42.46-3.49.93-1.65.71-3.06 1.7-4.23 2.95-1.17 1.25-2.07 2.74-2.71 4.47-.41 1.11-.67 2.27-.82 3.48-.05.59-.09 1.15-.12 1.68-.07 1.06-.1 2.01-.1 2.82v29.03h11.66v-27.64c0-.41.02-.79.04-1.16.12-2.07.53-3.6 1.24-4.58.85-1.17 2.18-1.76 3.99-1.76.85 0 1.56.04 2.12.12.56.08 1.13.17 1.72.28v-.03l.06.03 1.85-8.3c-.29-.19-.61-.37-.94-.55ZM541.29 226.71v-.16c1.9-2.22 3.95-4.83 5.94-7.52v.02l12.11-17.17.13-.18c.19-.29.35-.6.5-.92.38-.85.6-1.83.6-2.97 0-4.23-2.71-6.05-5.66-6.05h-26.3v9.5h18.59v.24c-1.91 2.31-3.83 4.71-5.83 7.42l-12.1 17.17-.13.18c-.69 1.04-1.1 2.32-1.1 3.89 0 4.23 2.71 6.05 5.66 6.05h27.85v-9.5h-20.27Z" class="cls-1"/></g></svg>
