<svg width="235" height="236" viewBox="0 0 235 236" fill="none" xmlns="http://www.w3.org/2000/svg">
<path d="M191.541 90.8447L191.552 90.8337L191.563 90.8226C197.164 85.1687 203.257 77.3194 205.555 68.2187C207.986 58.59 205.982 48.1971 196.543 38.7573C187.104 29.3188 176.711 27.3129 167.091 29.7456C157.998 32.0453 150.171 38.144 144.557 43.7573L44.0574 144.257C38.5802 149.734 32.1856 157.358 29.7344 166.391C28.4754 171.031 28.2483 176.073 29.732 181.29C31.2092 186.484 34.2788 191.49 39.0614 196.247C43.8206 201.005 48.8265 204.058 54.0165 205.528C59.2268 207.003 64.2627 206.781 68.8998 205.53C77.9315 203.095 85.5548 196.73 91.0405 191.245C91.0412 191.244 91.0419 191.243 91.0426 191.243L191.541 90.8447ZM113.457 64.4426L117.7 68.6852L121.943 64.4426L143.543 42.8426C144.869 41.5165 146.211 40.3505 147.73 39.0341L150.373 36.7428L149.681 33.3133C148.402 26.9705 145.831 20.2317 140.591 15.0562C135.209 9.73973 127.649 6.69995 117.7 6.69995C107.714 6.69995 100.124 9.73228 94.7336 15.0562C89.4817 20.2437 86.9367 26.9999 85.7087 33.363L85.0522 36.765L87.6704 39.0341C89.0443 40.2248 90.5347 41.6194 92.2218 43.207L113.457 64.4426ZM121.943 171.057L117.7 166.815L113.457 171.057L92.1574 192.357C90.6456 193.869 89.1426 195.278 87.649 196.585L85.0206 198.884L85.7224 202.306C87.0618 208.835 89.7679 215.657 95.0138 220.887C100.403 226.259 107.92 229.4 117.7 229.4C127.496 229.4 135.016 226.223 140.399 220.824C145.636 215.571 148.339 208.731 149.678 202.206L150.379 198.784L147.751 196.484L147.5 196.265C145.965 194.922 144.708 193.823 143.543 192.657L121.943 171.057ZM87.3 90.3999L91.5549 94.6302L101.726 84.3999H87.3H46.3C38.3632 84.3999 28.5143 85.6108 20.4564 90.4065C11.9293 95.4814 6 104.246 6 117.6C6 127.396 9.17672 134.916 14.5763 140.299C19.8293 145.536 26.6694 148.239 33.1943 149.578L36.4905 150.254L38.786 147.794C38.7837 147.797 38.7858 147.795 38.7933 147.787C38.8121 147.767 38.8653 147.712 38.9702 147.604C39.1004 147.471 39.2783 147.289 39.5029 147.061C39.9514 146.605 40.5721 145.976 41.3419 145.197C42.8807 143.641 45.0047 141.497 47.5166 138.964C52.5398 133.899 59.1071 127.284 65.6318 120.716C72.1562 114.148 78.6371 107.626 83.4868 102.747C85.9117 100.307 87.9287 98.2779 89.3396 96.8587L90.9764 95.2122L91.4072 94.7788L91.5176 94.6678L91.5456 94.6397L91.5526 94.6326L91.5544 94.6308C91.5548 94.6304 91.5549 94.6302 87.3 90.3999ZM202.087 85.6185L198.657 84.9266L196.366 87.5701C196.396 87.5357 196.382 87.5507 196.297 87.639C196.21 87.7293 196.05 87.8964 195.788 88.166C195.351 88.6164 194.739 89.2415 193.974 90.0201C192.445 91.5757 190.329 93.7206 187.82 96.2576C182.803 101.33 176.234 107.955 169.704 114.536C163.174 121.116 156.684 127.65 151.827 132.538C149.398 134.982 147.378 137.015 145.964 138.437L144.325 140.087L143.893 140.521L143.782 140.632L143.754 140.66L143.747 140.667L143.746 140.669C143.745 140.669 143.745 140.67 148 144.9L143.745 140.67L133.574 150.9H148H188.4C196.162 150.9 206.055 150.012 214.164 145.352C218.328 142.96 222.046 139.559 224.687 134.834C227.319 130.126 228.7 124.428 228.7 117.7C228.7 107.711 225.666 100.126 220.35 94.7276C215.173 89.4699 208.43 86.8983 202.087 85.6185ZM100.8 77L100.821 82.9999L103.294 82.9915L105.043 81.2426L112.343 73.9426L116.585 69.6999L112.343 65.4573L91.0426 44.1573C85.5655 38.6801 77.942 32.2856 68.9088 29.8344C64.2692 28.5754 59.2274 28.3483 54.0103 29.8319C48.8151 31.3094 43.8085 34.3795 39.0515 39.1632C31.9946 46.2224 28.7831 53.7221 28.7501 61.2988C28.7178 68.6746 31.7051 75.252 35.3156 80.64L37.2067 83.4621L40.5996 83.2925C40.5967 83.2926 40.6042 83.2925 40.6237 83.292C40.6945 83.2905 40.9237 83.2856 41.3866 83.2796C41.9115 83.2728 42.6319 83.2656 43.5242 83.2581C45.307 83.2432 47.7498 83.2272 50.631 83.2108C56.3921 83.178 63.8885 83.1436 71.3252 83.1124C78.7613 83.0812 86.1352 83.053 91.6502 83.0327C94.4077 83.0226 96.7004 83.0144 98.3036 83.0087L100.163 83.0022L100.653 83.0005L100.778 83.0001L100.81 83L100.818 82.9999L100.82 82.9999C100.82 82.9999 100.821 82.9999 100.8 77ZM134.5 158.4L134.479 152.4L132.006 152.408L130.257 154.157L122.957 161.457L118.705 165.71L122.967 169.952L144.657 191.543C144.658 191.544 144.66 191.545 144.661 191.546C150.274 197.158 158.099 203.255 167.191 205.554C176.811 207.987 187.204 205.981 196.643 196.543C203.586 189.599 206.633 182.035 206.6 174.412C206.568 167.007 203.636 160.277 200.031 154.73L198.059 151.697L194.457 152.025C194.462 152.024 194.429 152.025 194.354 152.027C194.079 152.033 193.242 152.054 191.687 152.075C189.899 152.1 187.454 152.124 184.57 152.147C178.804 152.194 171.318 152.238 163.895 152.275C156.473 152.313 149.119 152.344 143.62 152.366C140.871 152.377 138.585 152.385 136.987 152.391L135.134 152.398L134.646 152.399L134.522 152.4L134.49 152.4L134.482 152.4H134.48C134.48 152.4 134.479 152.4 134.5 158.4Z" fill="#E9635D" stroke="white" stroke-width="12"/>
</svg>
