<svg width="52" height="46" viewBox="0 0 52 46" fill="none" xmlns="http://www.w3.org/2000/svg">
<mask id="path-1-outside-1_155_1774" maskUnits="userSpaceOnUse" x="0" y="0" width="52" height="46" fill="black">
<rect fill="white" width="52" height="46"/>
<path fill-rule="evenodd" clip-rule="evenodd" d="M22.6724 22.697L28.1399 17.2222C31.1662 14.1919 31.1662 9.30303 28.1399 6.27273C25.1136 3.24242 20.2311 3.24242 17.2048 6.27273L6.26974 17.2222C3.24342 20.2525 3.24342 25.1616 6.26974 28.1717L17.1945 39.1311L17.1955 39.132L17.2043 39.1409L17.2048 39.1414C17.5831 39.5177 17.9904 39.8469 18.4194 40.1291C21.4228 42.1045 25.4919 41.7752 28.1399 39.1414C31.1662 36.1111 31.1662 31.202 28.1399 28.1717L22.6724 22.697ZM39.889 13.6534L45.9145 19.6667C47.5689 21.3434 47.5689 24.0505 45.9145 25.7273L39.8618 31.7879C38.1873 33.4646 35.4838 33.4646 33.8092 31.7879C32.1346 30.1111 32.1346 27.404 33.8092 25.7273L36.8355 22.697L33.8092 19.6667C32.1346 18.0101 32.1346 15.2828 33.8092 13.6263C35.4838 11.9495 38.1873 11.9495 39.8618 13.6263C39.8709 13.6352 39.8799 13.6442 39.8889 13.6533L39.889 13.6534Z"/>
</mask>
<path fill-rule="evenodd" clip-rule="evenodd" d="M22.6724 22.697L28.1399 17.2222C31.1662 14.1919 31.1662 9.30303 28.1399 6.27273C25.1136 3.24242 20.2311 3.24242 17.2048 6.27273L6.26974 17.2222C3.24342 20.2525 3.24342 25.1616 6.26974 28.1717L17.1945 39.1311L17.1955 39.132L17.2043 39.1409L17.2048 39.1414C17.5831 39.5177 17.9904 39.8469 18.4194 40.1291C21.4228 42.1045 25.4919 41.7752 28.1399 39.1414C31.1662 36.1111 31.1662 31.202 28.1399 28.1717L22.6724 22.697ZM39.889 13.6534L45.9145 19.6667C47.5689 21.3434 47.5689 24.0505 45.9145 25.7273L39.8618 31.7879C38.1873 33.4646 35.4838 33.4646 33.8092 31.7879C32.1346 30.1111 32.1346 27.404 33.8092 25.7273L36.8355 22.697L33.8092 19.6667C32.1346 18.0101 32.1346 15.2828 33.8092 13.6263C35.4838 11.9495 38.1873 11.9495 39.8618 13.6263C39.8709 13.6352 39.8799 13.6442 39.8889 13.6533L39.889 13.6534Z" fill="#286093"/>
<path d="M28.1399 17.2222L25.3096 14.3957L25.3096 14.3957L28.1399 17.2222ZM22.6724 22.697L19.8421 19.8704L17.0192 22.697L19.8421 25.5235L22.6724 22.697ZM28.1399 6.27273L30.9702 3.44616L30.9702 3.44616L28.1399 6.27273ZM17.2048 6.27273L14.3745 3.44616L14.3745 3.44616L17.2048 6.27273ZM6.26974 17.2222L9.10003 20.0488L6.26974 17.2222ZM6.26974 28.1717L9.10263 25.3478L9.09661 25.3417L9.09056 25.3357L6.26974 28.1717ZM17.1945 39.1311L14.3616 41.955L14.3619 41.9553L17.1945 39.1311ZM17.1955 39.132L14.3629 41.9563L14.3629 41.9563L17.1955 39.132ZM17.2043 39.1409L20.0401 36.3198L20.0368 36.3166L17.2043 39.1409ZM17.2048 39.1414L14.369 41.9624L14.3765 41.97L14.384 41.9774L17.2048 39.1414ZM18.4194 40.1291L20.6175 36.7872L20.6175 36.7872L18.4194 40.1291ZM28.1399 39.1414L30.9607 41.9774L30.9702 41.968L28.1399 39.1414ZM28.1399 28.1717L30.9702 25.3452L30.9702 25.3452L28.1399 28.1717ZM45.9145 19.6667L48.7618 16.8573L48.751 16.8463L48.74 16.8354L45.9145 19.6667ZM39.889 13.6534L42.7146 10.8221L42.7004 10.808L42.6862 10.794L39.889 13.6534ZM45.9145 25.7273L48.7448 28.5538L48.7533 28.5453L48.7618 28.5366L45.9145 25.7273ZM39.8618 31.7879L37.0316 28.9613L37.0316 28.9613L39.8618 31.7879ZM33.8092 31.7879L36.6395 28.9613L33.8092 31.7879ZM33.8092 25.7273L36.6395 28.5538L36.6395 28.5538L33.8092 25.7273ZM36.8355 22.697L39.6658 25.5235L42.4887 22.697L39.6658 19.8704L36.8355 22.697ZM33.8092 19.6667L36.6395 16.8401L36.6309 16.8315L36.6223 16.823L33.8092 19.6667ZM33.8092 13.6263L36.6223 16.4699L36.6309 16.4614L36.6395 16.4528L33.8092 13.6263ZM39.8618 13.6263L37.0316 16.4528L37.04 16.4613L37.0486 16.4698L39.8618 13.6263ZM39.8889 13.6533L37.0508 16.4719L37.0711 16.4924L37.0917 16.5126L39.8889 13.6533ZM25.3096 14.3957L19.8421 19.8704L25.5027 25.5235L30.9702 20.0488L25.3096 14.3957ZM25.3096 9.09929C26.7763 10.5679 26.7763 12.927 25.3096 14.3957L30.9702 20.0488C35.5561 15.4568 35.5561 8.03814 30.9702 3.44616L25.3096 9.09929ZM20.0351 9.09929C21.4989 7.63357 23.8458 7.63357 25.3096 9.09929L30.9702 3.44616C26.3814 -1.14872 18.9634 -1.14872 14.3745 3.44616L20.0351 9.09929ZM9.10003 20.0488L20.0351 9.09929L14.3745 3.44616L3.43945 14.3957L9.10003 20.0488ZM9.09056 25.3357C7.64172 23.8946 7.62809 21.5227 9.10003 20.0488L3.43945 14.3957C-1.14125 18.9824 -1.15488 26.4286 3.44892 31.0077L9.09056 25.3357ZM20.0274 36.3071L9.10263 25.3478L3.43684 30.9957L14.3616 41.955L20.0274 36.3071ZM20.0281 36.3078L20.0271 36.3068L14.3619 41.9553L14.3629 41.9563L20.0281 36.3078ZM20.0368 36.3166L20.028 36.3077L14.3629 41.9563L14.3717 41.9652L20.0368 36.3166ZM20.0406 36.3204L20.0401 36.3198L14.3685 41.9619L14.369 41.9624L20.0406 36.3204ZM20.6175 36.7872C20.4113 36.6515 20.2128 36.4916 20.0256 36.3054L14.384 41.9774C14.9534 42.5438 15.5695 43.0423 16.2214 43.471L20.6175 36.7872ZM25.3191 36.3054C24.0389 37.5787 22.0692 37.742 20.6175 36.7872L16.2214 43.471C20.7763 46.467 26.9448 45.9718 30.9607 41.9774L25.3191 36.3054ZM25.3096 30.9983C26.7763 32.4669 26.7763 34.8462 25.3096 36.3149L30.9702 41.968C35.5561 37.376 35.5561 29.9371 30.9702 25.3452L25.3096 30.9983ZM19.8421 25.5235L25.3096 30.9983L30.9702 25.3452L25.5027 19.8704L19.8421 25.5235ZM48.74 16.8354L42.7146 10.8221L37.0634 16.4846L43.0889 22.498L48.74 16.8354ZM48.7618 28.5366C51.9531 25.3022 51.9531 20.0917 48.7618 16.8573L43.0671 22.476C43.1846 22.5952 43.1846 22.7988 43.0671 22.9179L48.7618 28.5366ZM42.6921 34.6144L48.7448 28.5538L43.0842 22.9007L37.0316 28.9613L42.6921 34.6144ZM30.9789 34.6144C34.216 37.8558 39.455 37.8558 42.6921 34.6144L37.0316 28.9613C36.9195 29.0735 36.7515 29.0735 36.6395 28.9613L30.9789 34.6144ZM30.9789 22.9007C27.7447 26.1391 27.7447 31.376 30.9789 34.6144L36.6395 28.9613C36.5246 28.8462 36.5246 28.6689 36.6395 28.5538L30.9789 22.9007ZM34.0052 19.8704L30.9789 22.9007L36.6395 28.5538L39.6658 25.5235L34.0052 19.8704ZM30.9789 22.4932L34.0052 25.5235L39.6658 19.8704L36.6395 16.8401L30.9789 22.4932ZM30.9961 10.7826C27.739 14.0047 27.739 19.2882 30.9961 22.5103L36.6223 16.823C36.5812 16.7823 36.5533 16.7268 36.5533 16.6465C36.5533 16.5662 36.5812 16.5106 36.6223 16.4699L30.9961 10.7826ZM42.6921 10.7997C39.455 7.55835 34.216 7.55835 30.9789 10.7997L36.6395 16.4528C36.7515 16.3406 36.9195 16.3406 37.0316 16.4528L42.6921 10.7997ZM37.0486 16.4698C37.0491 16.4703 37.0498 16.471 37.0508 16.4719L42.727 10.8346C42.71 10.8174 42.6927 10.8002 42.6751 10.7828L37.0486 16.4698ZM42.6862 10.794L42.6861 10.7939L37.0917 16.5126L37.0918 16.5127L42.6862 10.794Z" fill="white" mask="url(#path-1-outside-1_155_1774)"/>
<path d="M17.2048 28.1717C14.1785 31.202 14.1785 36.1111 17.2048 39.1414L6.26974 28.1717C3.24342 25.1616 3.24342 20.2525 6.26974 17.2222L17.2048 6.27273C20.2311 3.24242 25.1136 3.24242 28.1399 6.27273C31.1662 9.30303 31.1662 14.1919 28.1399 17.2222L17.2048 28.1717Z" fill="#0099FF"/>
<path d="M17.2053 28.1717L22.6728 22.697L28.1404 28.1717C31.1667 31.202 31.1667 36.1111 28.1404 39.1414C25.1141 42.1515 20.2316 42.1515 17.2053 39.1414C14.179 36.1111 14.179 31.202 17.2053 28.1717Z" fill="#286093"/>
<path d="M39.8613 19.6667C41.5358 18.0101 41.5358 15.2828 39.8613 13.6263L45.9139 19.6667C47.5683 21.3434 47.5683 24.0505 45.9139 25.7273L39.8613 31.7879C38.1867 33.4646 35.4832 33.4646 33.8087 31.7879C32.1341 30.1111 32.1341 27.404 33.8087 25.7273L39.8613 19.6667Z" fill="#0099FF"/>
<path d="M39.8613 19.6667L36.835 22.697L33.8087 19.6667C32.1341 18.0101 32.1341 15.2828 33.8087 13.6263C35.4832 11.9495 38.1867 11.9495 39.8613 13.6263C41.5358 15.2828 41.5358 18.0101 39.8613 19.6667Z" fill="#286093"/>
</svg>
